<svg width="309" height="45" viewBox="0 0 309 45" fill="none" xmlns="http://www.w3.org/2000/svg">
<path d="M9.73535 22.6719V44H6.95215V22.6719H9.73535ZM16.5908 22.6719V24.9863H0.111328V22.6719H16.5908ZM33.6855 31.8418V34.1416H22.1426V31.8418H33.6855ZM22.582 22.6719V44H19.7549V22.6719H22.582ZM36.1465 22.6719V44H33.334V22.6719H36.1465ZM54.7207 41.7002V44H43.4268V41.7002H54.7207ZM43.998 22.6719V44H41.1709V22.6719H43.998ZM53.2266 31.8418V34.1416H43.4268V31.8418H53.2266ZM54.5742 22.6719V24.9863H43.4268V22.6719H54.5742ZM91.3125 27.2715H79.916V22.6719H91.3125C93.5195 22.6719 95.3066 22.3203 96.6738 21.6172C98.041 20.9141 99.0371 19.9375 99.6621 18.6875C100.307 17.4375 100.629 16.0117 100.629 14.4102C100.629 12.9453 100.307 11.5684 99.6621 10.2793C99.0371 8.99023 98.041 7.95508 96.6738 7.17383C95.3066 6.37305 93.5195 5.97266 91.3125 5.97266H81.2344V44H75.5801V1.34375H91.3125C94.5352 1.34375 97.2598 1.90039 99.4863 3.01367C101.713 4.12695 103.402 5.66992 104.555 7.64258C105.707 9.5957 106.283 11.832 106.283 14.3516C106.283 17.0859 105.707 19.4199 104.555 21.3535C103.402 23.2871 101.713 24.7617 99.4863 25.7773C97.2598 26.7734 94.5352 27.2715 91.3125 27.2715ZM139.301 39.4004V44H117.973V39.4004H139.301ZM119.086 1.34375V44H113.432V1.34375H119.086ZM162.152 5.12305L148.031 44H142.26L158.52 1.34375H162.24L162.152 5.12305ZM173.988 44L159.838 5.12305L159.75 1.34375H163.471L179.789 44H173.988ZM173.256 28.209V32.8379H149.291V28.209H173.256ZM197.455 1.34375V44H191.889V1.34375H197.455ZM211.166 1.34375V5.97266H178.207V1.34375H211.166ZM223.559 1.34375V44H217.904V1.34375H223.559ZM266.654 1.34375V44H260.971L239.496 11.0996V44H233.842V1.34375H239.496L261.059 34.332V1.34375H266.654ZM308.197 22.7598V38.375C307.67 39.1562 306.83 40.0352 305.678 41.0117C304.525 41.9688 302.934 42.8086 300.902 43.5312C298.891 44.2344 296.293 44.5859 293.109 44.5859C290.512 44.5859 288.119 44.1367 285.932 43.2383C283.764 42.3203 281.879 40.9922 280.277 39.2539C278.695 37.4961 277.465 35.3672 276.586 32.8672C275.727 30.3477 275.297 27.4961 275.297 24.3125V21.002C275.297 17.8184 275.668 14.9766 276.41 12.4766C277.172 9.97656 278.285 7.85742 279.75 6.11914C281.215 4.36133 283.012 3.0332 285.141 2.13477C287.27 1.2168 289.711 0.757812 292.465 0.757812C295.727 0.757812 298.451 1.32422 300.639 2.45703C302.846 3.57031 304.564 5.11328 305.795 7.08594C307.045 9.05859 307.846 11.3047 308.197 13.8242H302.543C302.289 12.2812 301.781 10.875 301.02 9.60547C300.277 8.33594 299.213 7.32031 297.826 6.55859C296.439 5.77734 294.652 5.38672 292.465 5.38672C290.492 5.38672 288.783 5.74805 287.338 6.4707C285.893 7.19336 284.701 8.22852 283.764 9.57617C282.826 10.9238 282.123 12.5547 281.654 14.4688C281.205 16.3828 280.98 18.541 280.98 20.9434V24.3125C280.98 26.7734 281.264 28.9707 281.83 30.9043C282.416 32.8379 283.246 34.4883 284.32 35.8555C285.395 37.2031 286.674 38.2285 288.158 38.9316C289.662 39.6348 291.322 39.9863 293.139 39.9863C295.15 39.9863 296.781 39.8203 298.031 39.4883C299.281 39.1367 300.258 38.7266 300.961 38.2578C301.664 37.7695 302.201 37.3105 302.572 36.8809V27.3301H292.699V22.7598H308.197Z" fill="black"/>
</svg>
